<svg width="85" height="95" viewBox="0 0 85 95" fill="none" xmlns="http://www.w3.org/2000/svg">
<path d="M5.6 18.8V18H19.84V63.44C19.84 67.6533 18.9867 70.48 17.28 71.92C15.5733 73.3067 12.9867 74 9.52 74C6.10667 74 3.06667 73.4933 0.4 72.48L0.64 71.84C3.2 72.8533 5.84 73.36 8.56 73.36C10.3733 73.36 11.5733 72.5867 12.16 71.04C12.8 69.4933 13.12 66.9867 13.12 63.52V18.8H5.6Z" fill="#FFD55A"/>
<path d="M34.6 39.64C40.7867 39.2133 46.2267 39 50.92 39C64.1467 39 70.76 43.6667 70.76 53C70.76 57.32 69.64 61.1067 67.4 64.36C66.2267 66.12 64.4133 67.5333 61.96 68.6C59.5067 69.6133 56.5467 70.12 53.08 70.12H41.24V95H34.6V39.64ZM51 39.8C47.9067 39.8 44.6533 39.9867 41.24 40.36V69.32H53.08C60.6 69 64.36 63.6133 64.36 53.16C64.36 48.8933 63.24 45.6133 61 43.32C58.76 40.9733 55.4267 39.8 51 39.8Z" fill="#FFD55A"/>
</svg>
