<svg width="40" height="40" viewBox="0 0 40 40" fill="none" xmlns="http://www.w3.org/2000/svg">
<path d="M9.31096 12.8683H1.28096C0.924553 12.8683 0.635803 13.1573 0.635803 13.5135V39.3107C0.635803 39.6671 0.924553 39.9559 1.28096 39.9559H9.31096C9.66737 39.9559 9.95611 39.6671 9.95611 39.3107V13.5135C9.95611 13.1573 9.66737 12.8683 9.31096 12.8683Z" fill="#293250"/>
<path d="M5.29883 0.0439758C2.37703 0.0439758 0 2.41843 0 5.33702C0 8.25686 2.37703 10.6323 5.29883 10.6323C8.21828 10.6323 10.5934 8.25679 10.5934 5.33702C10.5935 2.41843 8.21836 0.0439758 5.29883 0.0439758Z" fill="#293250"/>
<path d="M29.736 12.2272C26.5108 12.2272 24.1267 13.6137 22.6806 15.189V13.5135C22.6806 13.1573 22.3919 12.8683 22.0354 12.8683H14.3453C13.9889 12.8683 13.7001 13.1573 13.7001 13.5135V39.3107C13.7001 39.6671 13.9889 39.9558 14.3453 39.9558H22.3578C22.7142 39.9558 23.0029 39.6671 23.0029 39.3107V26.5471C23.0029 22.2461 24.1712 20.5705 27.1694 20.5705C30.4347 20.5705 30.6942 23.2566 30.6942 26.7684V39.3108C30.6942 39.6672 30.9829 39.956 31.3394 39.956H39.3548C39.7112 39.956 40 39.6672 40 39.3108V25.1606C40 18.7651 38.7805 12.2272 29.736 12.2272Z" fill="#293250"/>
</svg>
