<svg width="44" height="28" viewBox="0 0 44 28" fill="none" xmlns="http://www.w3.org/2000/svg">
<path d="M2.06644 2.6832C3.22659 3.29492 19.3422 12.0805 19.9434 12.3969C20.5446 12.7133 21.1563 12.8609 22.1055 12.8609C23.0547 12.8609 23.6664 12.7133 24.2676 12.3969C24.8688 12.0805 40.9844 3.29492 42.1446 2.6832C42.577 2.46172 43.3047 2.06094 43.4629 1.60742C43.7371 0.805859 43.4418 0.5 42.2711 0.5H22.1055H1.93987C0.769171 0.5 0.473859 0.816406 0.748077 1.60742C0.90628 2.07148 1.63401 2.46172 2.06644 2.6832Z" fill="#293250"/>
<path d="M43.0621 3.15781C42.1973 3.60078 34.4348 9.12734 29.2984 12.4496L37.968 22.2055C38.1789 22.4164 38.2738 22.6695 38.1578 22.7961C38.0313 22.9121 37.757 22.8488 37.5355 22.6484L27.1363 13.8734C25.5648 14.8859 24.4574 15.582 24.2676 15.6875C23.4555 16.0988 22.8859 16.1516 22.1055 16.1516C21.325 16.1516 20.7555 16.0988 19.9434 15.6875C19.743 15.582 18.6461 14.8859 17.0746 13.8734L6.67539 22.6484C6.46445 22.8594 6.17969 22.9227 6.05313 22.7961C5.92656 22.6801 6.02148 22.4164 6.23242 22.2055L14.8914 12.4496C9.75508 9.12734 1.9082 3.60078 1.04336 3.15781C0.115234 2.6832 0.0625 3.24219 0.0625 3.67461C0.0625 4.10703 0.0625 25.2957 0.0625 25.2957C0.0625 26.2766 1.50742 27.5 2.54102 27.5H22.1055H41.6699C42.7035 27.5 43.9375 26.266 43.9375 25.2957C43.9375 25.2957 43.9375 4.09648 43.9375 3.67461C43.9375 3.23164 44.0008 2.6832 43.0621 3.15781Z" fill="#293250"/>
</svg>
