<svg width="40" height="40" viewBox="0 0 40 40" fill="none" xmlns="http://www.w3.org/2000/svg">
<path d="M12.5794 39.8866C27.6747 39.8866 35.9291 24.5875 35.9291 11.3231C35.9291 10.8888 35.9291 10.4553 35.9056 10.0244C37.5122 8.60345 38.8991 6.84314 40 4.82657C38.5031 5.6397 36.9153 6.17189 35.2881 6.40876C37.0006 5.15251 38.2825 3.17876 38.8941 0.854385C37.2828 2.02407 35.52 2.84814 33.6816 3.2922C31.1391 -0.0159274 27.0972 -0.826552 23.8231 1.3172C20.5506 3.46095 18.86 8.02345 19.6984 12.4475C13.1006 12.0434 6.95188 8.23001 2.78595 1.95939C0.60407 6.54376 1.71469 12.4134 5.31938 15.3625C4.02313 15.3088 2.7547 14.8766 1.62188 14.1028V14.2309C1.62188 19.0038 4.36751 23.1178 8.19063 24.0722C6.99504 24.4741 5.71075 24.5329 4.48345 24.2419C5.55751 28.3338 8.63876 31.1388 12.1506 31.2194C9.24282 34.0063 5.65282 35.5163 1.95782 35.5069C1.30344 35.5069 0.64907 35.46 -0.000305176 35.3675C3.7522 38.3153 8.11844 39.8803 12.5791 39.8744" fill="#293250"/>
</svg>
