<svg width="40" height="40" viewBox="0 0 40 40" fill="none" xmlns="http://www.w3.org/2000/svg">
<path d="M29.5979 22.9846C29.52 22.9472 26.6039 21.5112 26.0857 21.3247C25.8741 21.2487 25.6475 21.1746 25.4065 21.1746C25.0127 21.1746 24.6819 21.3708 24.4243 21.7562C24.133 22.1892 23.2512 23.22 22.9787 23.5279C22.9431 23.5686 22.8945 23.6172 22.8654 23.6172C22.8393 23.6172 22.388 23.4313 22.2514 23.372C19.1232 22.0131 16.7488 18.7455 16.4232 18.1944C16.3767 18.1152 16.3748 18.0792 16.3744 18.0792C16.3858 18.0373 16.491 17.9318 16.5453 17.8774C16.7041 17.7203 16.8762 17.5131 17.0427 17.3127C17.1216 17.2178 17.2005 17.1227 17.278 17.0331C17.5196 16.7521 17.6271 16.5339 17.7518 16.2812L17.8171 16.1499C18.1216 15.5451 17.8615 15.0347 17.7775 14.8699C17.7086 14.732 16.4773 11.7603 16.3464 11.4481C16.0315 10.6947 15.6156 10.3439 15.0375 10.3439C14.9839 10.3439 15.0375 10.3439 14.8126 10.3534C14.5387 10.3649 13.0471 10.5613 12.3877 10.977C11.6883 11.4179 10.5052 12.8234 10.5052 15.2951C10.5052 17.5196 11.9169 19.62 12.523 20.4188C12.538 20.439 12.5657 20.4799 12.6058 20.5386C14.927 23.9285 17.8206 26.4407 20.754 27.6125C23.578 28.7405 24.9153 28.8709 25.6756 28.8709C25.6757 28.8709 25.6757 28.8709 25.6757 28.8709C25.9952 28.8709 26.2509 28.8459 26.4765 28.8236L26.6196 28.81C27.5952 28.7235 29.7391 27.6126 30.2267 26.2574C30.6109 25.19 30.7122 24.0238 30.4566 23.6005C30.2815 23.3127 29.9799 23.1679 29.5979 22.9846Z" fill="#293250"/>
<path d="M20.3552 0C9.52191 0 0.708404 8.74727 0.708404 19.4991C0.708404 22.9766 1.63905 26.3806 3.40204 29.3599L0.0276244 39.3138C-0.0352328 39.4994 0.0115205 39.7045 0.148793 39.8443C0.247884 39.9455 0.3823 40 0.519572 40C0.57217 40 0.625157 39.9921 0.676845 39.9756L11.0561 36.6774C13.8963 38.1949 17.1065 38.996 20.3553 38.996C31.1875 38.9961 40.0001 30.2497 40.0001 19.4991C40.0001 8.74727 31.1875 0 20.3552 0ZM20.3552 34.9343C17.2981 34.9343 14.3372 34.0516 11.792 32.3814C11.7065 32.3252 11.6071 32.2964 11.5071 32.2964C11.4542 32.2964 11.4013 32.3044 11.3497 32.3208L6.15035 33.9735L7.82879 29.0217C7.88308 28.8614 7.85594 28.6847 7.75594 28.5481C5.81776 25.8997 4.79321 22.7708 4.79321 19.4991C4.79321 10.987 11.7743 4.06182 20.355 4.06182C28.9348 4.06182 35.915 10.987 35.915 19.4991C35.9152 28.0101 28.935 34.9343 20.3552 34.9343Z" fill="#293250"/>
</svg>
